<?xml version="1.0" standalone="no"?>
<svg version="1.0" xmlns="http://www.w3.org/2000/svg" width="208.7612359841165" height="204.915625"
    viewBox="0 0 724.000000 724.000000" preserveAspectRatio="xMidYMid meet">

    <g transform="translate(0.000000,724.000000) scale(0.100000,-0.100000)" fill="#3297a8" stroke="none">
        <path d="M5565 6084 c-33 -8 -87 -23 -120 -33 -39 -13 -104 -21 -185 -25 -173
-7 -306 -26 -740 -104 l-375 -67 -215 2 c-118 1 -390 7 -605 14 -696 20 -1090
-9 -1490 -111 -177 -45 -396 -122 -439 -155 -17 -13 -73 -38 -125 -56 -318
-110 -362 -280 -236 -909 44 -223 65 -359 65 -434 0 -47 3 -57 12 -48 20 20
25 14 38 -39 9 -38 24 -61 57 -95 40 -39 45 -48 39 -77 -4 -17 -9 -106 -12
-197 -6 -155 2 -256 32 -452 6 -34 4 -38 -37 -63 -24 -15 -56 -39 -72 -53 -32
-30 -67 -132 -67 -196 0 -48 -12 -71 -33 -63 -31 12 -51 -17 -48 -72 1 -29 -5
-89 -13 -134 -17 -91 -15 -417 4 -537 5 -36 10 -99 10 -141 0 -46 6 -91 15
-113 14 -33 14 -45 -2 -125 l-17 -89 43 -65 c88 -136 211 -238 340 -283 77
-27 285 -50 351 -39 56 9 259 -12 330 -34 36 -11 87 -34 113 -51 26 -16 49
-30 50 -30 1 0 11 16 21 35 11 19 23 35 28 35 4 0 8 -24 8 -54 0 -47 2 -54 18
-49 14 3 23 -6 37 -37 10 -22 23 -39 29 -37 13 4 23 46 25 100 1 26 6 37 16
37 18 0 21 70 3 88 -9 9 -9 18 1 38 19 43 30 18 47 -111 18 -138 33 -180 34
-92 0 31 4 57 10 57 5 0 15 18 21 40 21 69 32 53 49 -69 9 -67 20 -105 20 -72
0 18 47 61 67 61 10 0 43 -16 73 -35 64 -41 92 -44 122 -10 27 31 43 31 82 2
50 -38 64 -39 88 -12 27 31 32 31 46 0 11 -23 17 -25 79 -25 38 0 118 5 178
11 146 14 348 14 407 0 31 -7 63 -8 95 -2 146 28 285 34 863 35 406 2 628 6
675 14 257 43 288 53 562 190 136 69 142 73 157 114 63 170 95 508 96 1013 1
171 5 416 10 545 5 129 14 550 20 935 23 1366 -18 1705 -242 1993 -102 132
-241 177 -413 136z m-2775 -1334 l0 -820 810 0 810 0 0 820 0 820 345 0 345 0
0 -1970 0 -1970 -345 0 -345 0 0 895 0 895 -810 0 -810 0 0 -895 0 -895 -350
0 -350 0 0 1970 0 1970 350 0 350 0 0 -820z" />
    </g>
</svg>